# xmcd
#
# Track frame offsets:
#	150
#	27339
#	43725
#	64555
#	78984
#
# Disc length: 1340 seconds
# Revision: 0
# Processed by: cddbd v1.5.2PL0 Copyright (c) Steve Scherf et al.
# Submitted via: dBpowerAMP V12.0
#
DISCID=36053a05
DTITLE=Amythyst Kiah and Her Chest of Glass - Amythyst Kiah and Her Chest of Glass EP
DYEAR=2016
DGENRE=Blues
TTITLE0=Trouble So Hard
TTITLE1=Hangover Blues
TTITLE2=Myth
TTITLE3=Another Man Done Gone
TTITLE4=Wildebeest
EXTD=
EXTT0=
EXTT1=
EXTT2=
EXTT3=
EXTT4=
PLAYORDER=
